<svg id="Layer_1" data-name="Layer 1" xmlns="http://www.w3.org/2000/svg" viewBox="0 0 2103.14 766.9"><title>Icons</title><path d="M696.62,1029.13l12-45.82a313.22,313.22,0,0,0,7.72-40c6-47.64-2.93-153-30.32-200.19L629,857.51,493.75,449,358.48,857.51l-57-114.34c-27.39,47.17-36.37,152.55-30.32,200.19a313.22,313.22,0,0,0,7.72,40l12,45.82L225.23,1004c12.16,85.36,119.47,211.86,268.52,211.86S750.12,1089.38,762.27,1004Z" transform="translate(-225.23 -448.98)"/><path d="M1604.84,515.62s-8.21,369.77-81.66,493.12-220,185.73-220,185.73-146.52-62.39-220-185.73-81.66-493.12-81.66-493.12,122,40,301.63,40S1604.84,515.62,1604.84,515.62Z" transform="translate(-225.23 -448.98)"/><polygon points="2103.14 314.53 1912.66 314.53 1912.66 124.06 1756.43 124.06 1756.43 314.53 1565.95 314.53 1565.95 470.77 1756.43 470.77 1756.43 661.25 1912.66 661.25 1912.66 470.77 2103.14 470.77 2103.14 314.53"/></svg>